<svg xmlns="http://www.w3.org/2000/svg" version="1.0" width="352.000000pt" height="294.000000pt" viewBox="0 0 352.000000 294.000000" preserveAspectRatio="xMidYMid meet">

<g transform="translate(0.000000,294.000000) scale(0.100000,-0.100000)" fill="#610505" stroke="none">
<path d="M1963 2889 c-65 -25 -144 -108 -167 -175 -51 -150 19 -312 163 -378 71 -32 179 -29 253 7 109 53 163 143 163 272 0 67 -5 88 -27 131 -34 64 -105 128 -165 148 -63 22 -156 19 -220 -5z" fill="#610505"/>
<path d="M1118 2391 c-95 -5 -121 -10 -143 -26 -25 -19 -194 -309 -252 -432 -21 -45 -23 -57 -14 -91 14 -51 49 -82 101 -89 72 -10 93 9 213 192 l107 165 145 0 c80 0 145 -2 145 -4 0 -3 -64 -141 -141 -307 -123 -262 -142 -311 -147 -365 -5 -72 12 -135 54 -189 l27 -35 -58 -128 c-32 -70 -61 -130 -64 -134 -4 -4 -105 8 -226 27 -121 19 -237 35 -258 35 -70 0 -130 -49 -143 -116 -9 -50 19 -118 60 -143 47 -30 638 -164 692 -158 72 8 95 33 179 199 43 84 79 155 81 157 2 2 52 -43 111 -102 l107 -106 -87 -269 c-90 -277 -99 -329 -72 -382 34 -66 136 -91 203 -50 40 25 46 37 191 420 64 170 111 310 111 330 0 54 -23 87 -196 272 -88 95 -164 179 -168 186 -8 13 17 64 177 370 l80 154 82 -149 c46 -81 91 -159 100 -172 36 -48 60 -51 351 -40 149 5 281 14 297 21 68 27 91 128 41 187 -34 41 -77 51 -220 51 -67 0 -155 3 -197 6 l-77 7 -68 131 c-142 273 -218 376 -336 455 -167 113 -239 132 -490 129 -100 -1 -234 -4 -298 -7z" fill="#610505"/>
</g>
</svg>