<svg xmlns="http://www.w3.org/2000/svg" version="1.0" width="900.000000pt" height="561.000000pt" viewBox="0 0 900.000000 561.000000" preserveAspectRatio="xMidYMid meet">

<g transform="translate(0.000000,561.000000) scale(0.100000,-0.100000)" fill="#ffffff" stroke="none">
<path d="M5428 5465 c-226 -57 -387 -258 -388 -482 0 -256 181 -473 411 -490 96 -7 170 9 268 57 124 63 233 182 282 309 31 79 37 211 14 282 -64 195 -236 323 -450 334 -51 3 -101 -1 -137 -10z" fill="#ffffff"/>
<path d="M4600 4550 c-63 -4 -243 -15 -400 -24 -403 -23 -428 -29 -536 -113 -27 -22 -200 -142 -384 -267 -184 -126 -354 -244 -377 -262 -54 -44 -83 -105 -83 -175 1 -165 157 -285 307 -235 28 9 217 125 428 261 l379 245 193 0 c106 0 193 -3 193 -6 0 -7 -574 -907 -616 -965 -50 -69 -91 -163 -105 -241 -23 -131 17 -279 115 -426 63 -94 118 -163 495 -622 247 -301 288 -356 274 -364 -10 -5 -224 -101 -478 -212 -497 -219 -510 -227 -557 -322 -35 -72 -38 -184 -6 -254 36 -77 71 -113 143 -149 60 -29 70 -31 147 -27 l83 5 545 248 c334 152 568 265 605 291 114 80 195 179 228 278 19 56 22 167 6 236 -21 92 -87 195 -394 614 -173 236 -311 434 -308 440 6 10 247 308 641 792 l163 202 265 -217 c145 -119 281 -225 302 -236 58 -31 217 -28 291 5 88 39 893 469 926 495 83 63 119 220 75 323 -48 111 -162 176 -267 154 -27 -6 -230 -92 -452 -192 -222 -99 -407 -179 -411 -178 -4 2 -78 94 -164 205 -312 402 -511 560 -831 663 -113 37 -226 45 -435 30z" fill="#ffffff"/>
<path d="M3413 2268 c-44 -51 -216 -257 -383 -458 -266 -320 -356 -419 -729 -804 -234 -241 -437 -456 -450 -478 -19 -31 -26 -59 -29 -118 -6 -100 14 -163 73 -228 62 -68 128 -97 225 -96 127 1 136 7 464 343 159 163 501 507 761 766 260 259 498 498 529 531 l57 61 -102 119 c-130 153 -258 324 -299 397 -18 31 -33 57 -35 57 -2 0 -39 -42 -82 -92z" fill="#ffffff"/>
</g>
</svg>