<svg xmlns="http://www.w3.org/2000/svg" version="1.0" width="429.000000pt" height="386.000000pt" viewBox="0 0 429.000000 386.000000" preserveAspectRatio="xMidYMid meet">

<g transform="translate(0.000000,386.000000) scale(0.100000,-0.100000)" fill="#610505" stroke="none">
<path d="M879 3690 c-114 -14 -239 -51 -239 -71 0 -19 70 -189 115 -279 56 -112 149 -251 215 -323 183 -200 645 -393 1014 -423 l89 -7 -6 99 c-7 123 -43 264 -99 391 -115 263 -309 454 -552 542 -170 61 -381 89 -537 71z m109 -196 c273 -112 547 -299 785 -536 92 -91 118 -123 115 -140 -2 -16 -11 -24 -28 -25 -20 -2 -38 12 -90 73 -124 144 -348 332 -530 444 -88 55 -271 149 -332 171 -25 8 -38 19 -38 31 0 26 20 23 118 -18z" fill="#610505"/>
<path d="M2760 3534 c-274 -52 -446 -183 -560 -426 -57 -122 -100 -316 -72 -331 12 -7 181 11 264 28 201 40 418 138 521 235 77 72 172 208 227 326 56 119 57 115 -25 143 -58 20 -93 25 -200 27 -71 1 -141 0 -155 -2z m253 -129 c1 -5 -46 -29 -104 -54 -197 -85 -382 -209 -537 -359 -52 -52 -88 -79 -97 -75 -28 10 -15 31 71 112 156 148 352 273 553 352 96 38 111 42 114 24z" fill="#610505"/>
<path d="M1305 2560 c-154 -40 -295 -127 -432 -265 -79 -80 -97 -105 -141 -196 -81 -168 -97 -246 -97 -484 0 -173 3 -214 23 -303 66 -295 197 -551 379 -742 200 -211 471 -324 804 -337 256 -10 454 41 640 168 82 55 169 138 169 160 0 33 -29 34 -63 2 -99 -93 -252 -177 -392 -214 -114 -31 -311 -37 -447 -14 -199 33 -394 115 -519 219 -334 275 -523 869 -413 1301 50 197 198 372 400 473 162 82 272 82 514 4 276 -89 309 -90 598 -15 154 40 191 46 287 47 134 1 206 -20 322 -96 245 -160 365 -419 350 -758 -15 -350 -151 -676 -377 -900 -137 -137 -277 -232 -480 -324 -93 -43 -110 -57 -103 -87 9 -33 33 -38 119 -24 526 92 942 552 1045 1156 18 105 20 150 16 289 -7 208 -33 319 -114 475 -117 226 -341 406 -583 466 -114 29 -292 23 -425 -14 -49 -13 -135 -37 -190 -52 -141 -38 -210 -36 -350 9 -248 80 -394 95 -540 56z" fill="#610505"/>
<path d="M2362 1960 c-96 -23 -189 -140 -227 -287 -19 -73 -20 -260 -1 -330 33 -122 116 -244 186 -273 l30 -12 1 -97 c3 -176 8 -242 20 -257 15 -19 59 -18 87 2 21 15 22 21 22 182 l1 167 43 26 c84 51 151 163 177 294 16 77 12 224 -6 296 -37 141 -125 256 -217 284 -56 16 -67 17 -116 5z" fill="#610505"/>
<path d="M1577 1903 c-7 -18 -14 -112 -17 -263 -4 -200 -7 -235 -20 -235 -13 0 -16 32 -20 205 -5 197 -13 250 -39 250 -5 0 -15 -15 -22 -32 -11 -25 -14 -96 -14 -298 0 -256 1 -267 24 -324 14 -36 42 -78 73 -110 l50 -51 5 -165 c3 -91 10 -171 15 -177 13 -17 68 -16 90 1 15 11 18 37 22 181 l5 168 35 29 c19 16 50 59 68 96 l33 66 3 272 c3 230 1 278 -13 310 -14 33 -17 36 -30 23 -24 -24 -35 -111 -34 -272 0 -84 0 -158 0 -164 -1 -18 -28 -16 -34 1 -3 8 -5 101 -3 208 2 200 -5 278 -30 299 -11 9 -17 5 -29 -24 -12 -29 -15 -83 -15 -254 0 -120 -5 -225 -10 -233 -22 -35 -29 15 -32 235 -2 172 -7 237 -17 258 -8 15 -18 27 -23 27 -5 0 -14 -12 -21 -27z" fill="#610505"/>
</g>
</svg>