<?xml version="1.0" standalone="no"?>
<!DOCTYPE svg PUBLIC "-//W3C//DTD SVG 20010904//EN"
 "http://www.w3.org/TR/2001/REC-SVG-20010904/DTD/svg10.dtd">
<svg version="1.0" xmlns="http://www.w3.org/2000/svg"
 width="628.000000pt" height="580.000000pt" viewBox="0 0 628.000000 580.000000"
 preserveAspectRatio="xMidYMid meet">

<g transform="translate(0.000000,580.000000) scale(0.100000,-0.100000)"
fill="#000000" stroke="none">
<path d="M2419 5746 c-58 -20 -97 -54 -129 -109 -58 -101 -30 -241 61 -306
160 -116 378 -10 379 185 0 111 -63 199 -166 230 -58 17 -98 17 -145 0z"/>
<path d="M1500 5367 c-51 -17 -136 -103 -149 -152 -27 -98 -7 -172 63 -241 74
-72 147 -89 241 -57 162 55 213 260 96 386 -57 62 -171 91 -251 64z"/>
<path d="M3333 5363 c-81 -28 -153 -134 -153 -223 0 -101 82 -207 179 -230
129 -31 250 39 287 168 55 186 -127 351 -313 285z"/>
<path d="M4595 5275 c-52 -26 -60 -48 -65 -189 l-5 -129 -53 -20 -53 -20 -78
77 c-92 89 -137 112 -185 96 -20 -6 -87 -65 -179 -157 -197 -196 -198 -203
-59 -345 l85 -87 -23 -56 -22 -55 -115 0 c-124 0 -155 -9 -192 -56 -17 -22
-21 -41 -21 -103 l0 -76 103 0 c119 0 189 -19 276 -75 l56 -36 53 34 c81 51
155 74 266 81 l99 6 12 41 c25 83 87 153 185 205 38 20 59 24 140 24 113 0
163 -19 238 -89 119 -112 144 -299 57 -436 -30 -47 -108 -116 -149 -131 l-32
-12 0 -126 c1 -119 -1 -131 -30 -203 -48 -117 -135 -239 -258 -361 l-109 -109
32 -31 31 -32 207 -3 c295 -5 300 -2 305 202 l3 128 56 23 57 23 78 -80 c44
-44 94 -87 113 -95 60 -26 84 -12 234 136 146 143 167 171 167 221 0 44 -13
65 -97 152 -41 42 -75 80 -75 85 0 4 8 29 18 56 l18 47 119 0 c126 0 162 10
191 52 23 33 23 435 0 479 -23 46 -66 59 -197 59 l-114 0 -21 56 -20 55 79 80
c89 90 99 105 99 149 0 50 -21 78 -167 221 -150 148 -174 162 -234 136 -19 -8
-69 -51 -112 -94 l-79 -80 -56 23 -57 23 -3 126 c-4 202 -9 205 -289 205 -155
0 -205 -4 -228 -15z"/>
<path d="M2320 4877 c-107 -32 -184 -79 -270 -166 -86 -87 -129 -162 -161
-276 -30 -112 -24 -279 15 -380 81 -211 256 -360 476 -406 77 -16 240 -6 314
20 147 52 275 155 349 281 185 317 61 727 -265 884 -51 24 -117 49 -146 55
-89 18 -227 13 -312 -12z"/>
<path d="M3640 4016 c-118 -25 -226 -113 -279 -226 -23 -48 -26 -68 -26 -160
0 -93 3 -112 27 -162 64 -137 201 -295 383 -441 102 -83 300 -217 320 -217 43
0 352 228 478 354 248 246 314 442 216 643 -73 150 -260 245 -422 213 -75 -15
-124 -38 -200 -97 -67 -52 -82 -52 -148 3 -56 46 -121 79 -187 93 -64 13 -90
13 -162 -3z"/>
<path d="M1984 3255 c-153 -33 -303 -116 -411 -227 -34 -34 -181 -209 -327
-387 -147 -178 -277 -332 -290 -342 -13 -10 -142 -95 -287 -190 -145 -94 -283
-189 -306 -211 -23 -22 -54 -68 -70 -102 -24 -52 -28 -74 -28 -146 0 -76 4
-93 33 -152 36 -74 96 -133 170 -170 40 -19 63 -23 148 -23 l100 0 255 129
c139 71 272 141 294 156 22 15 131 107 242 204 111 97 204 176 207 176 4 0 6
-152 6 -337 l-1 -338 -317 -179 c-174 -99 -393 -223 -486 -275 -191 -108 -257
-164 -299 -253 -88 -187 -18 -419 158 -523 51 -30 143 -55 201 -55 22 0 171
30 330 66 159 36 386 87 504 114 118 27 322 73 453 103 l237 54 193 -44 c966
-221 1293 -293 1329 -293 54 0 130 20 185 49 186 94 266 333 175 522 -52 109
-95 141 -512 378 -206 117 -423 241 -482 275 l-108 61 0 338 c0 213 4 336 10
332 5 -3 105 -89 222 -190 208 -181 215 -186 382 -274 94 -49 220 -114 281
-143 l109 -53 101 0 c95 0 103 2 162 34 70 38 121 94 158 173 30 64 34 187 10
259 -34 97 -71 130 -323 295 -130 86 -266 175 -302 199 -55 37 -111 99 -360
401 -189 230 -319 379 -363 415 -90 76 -206 135 -324 165 -95 24 -100 24 -547
23 -335 0 -467 -4 -512 -14z"/>
</g>
</svg>
